<?xml version="1.0"?>
<svg xmlns="http://www.w3.org/2000/svg" viewBox="0 0 64 64" width="512px" height="512px"><g><g id="snow"><path d="M47.792,9.417c-.245,0-.487.007-.729.021a16.7,16.7,0,0,0-28.749,2.023A11.866,11.866,0,0,0,7.462,32.431,19.189,19.189,0,0,0,21.025,38H49a.912.912,0,0,0,.408-.1A14.289,14.289,0,0,0,47.792,9.417ZM48.91,35.943a.882.882,0,0,0-.242.057H21.025A17.2,17.2,0,0,1,8.8,30.94a1.056,1.056,0,0,0-.165-.133,9.868,9.868,0,0,1,3.523-18.018,10.023,10.023,0,0,1,1.8-.163,9.815,9.815,0,0,1,4.411,1.047,1,1,0,0,0,1.369-.506,14.7,14.7,0,0,1,25.975-2.152.983.983,0,0,0,.937.46c.377-.035.759-.058,1.147-.058A12.288,12.288,0,0,1,48.91,35.943Z" data-original="#000000" class="active-path" data-old_color="#ffffff" fill="#ffffff"/><path d="M33.209,6.083a1,1,0,0,0,0,2,10.663,10.663,0,0,1,9.038,4.992A1,1,0,0,0,43.937,12,12.66,12.66,0,0,0,33.209,6.083Z" data-original="#000000" class="active-path" data-old_color="#ffffff" fill="#ffffff"/><path d="M17.386,15.378a7.789,7.789,0,0,0-3.511-.836,7.869,7.869,0,0,0-4.244,14.5l.269.173.228.227a1,1,0,0,0,1.412-1.417l-.3-.3a.925.925,0,0,0-.165-.133l-.36-.232a5.865,5.865,0,0,1,5.779-10.191,1,1,0,0,0,.895-1.789Z" data-original="#000000" class="active-path" data-old_color="#ffffff" fill="#ffffff"/><path d="M32,39a3,3,0,1,0,3,3A3,3,0,0,0,32,39Zm0,4a1,1,0,1,1,1-1A1,1,0,0,1,32,43Z" data-original="#000000" class="active-path" data-old_color="#ffffff" fill="#ffffff"/><path d="M42,39a3,3,0,1,0,3,3A3,3,0,0,0,42,39Zm0,4a1,1,0,1,1,1-1A1,1,0,0,1,42,43Z" data-original="#000000" class="active-path" data-old_color="#ffffff" fill="#ffffff"/><path d="M52,39a3,3,0,1,0,3,3A3,3,0,0,0,52,39Zm0,4a1,1,0,1,1,1-1A1,1,0,0,1,52,43Z" data-original="#000000" class="active-path" data-old_color="#ffffff" fill="#ffffff"/><path d="M22,39a3,3,0,1,0,3,3A3,3,0,0,0,22,39Zm0,4a1,1,0,1,1,1-1A1,1,0,0,1,22,43Z" data-original="#000000" class="active-path" data-old_color="#ffffff" fill="#ffffff"/><path d="M12,39a3,3,0,1,0,3,3A3,3,0,0,0,12,39Zm0,4a1,1,0,1,1,1-1A1,1,0,0,1,12,43Z" data-original="#000000" class="active-path" data-old_color="#ffffff" fill="#ffffff"/><path d="M34,48a3,3,0,1,0,3-3A3,3,0,0,0,34,48Zm4,0a1,1,0,1,1-1-1A1,1,0,0,1,38,48Z" data-original="#000000" class="active-path" data-old_color="#ffffff" fill="#ffffff"/><path d="M47,51a3,3,0,1,0-3-3A3,3,0,0,0,47,51Zm0-4a1,1,0,1,1-1,1A1,1,0,0,1,47,47Z" data-original="#000000" class="active-path" data-old_color="#ffffff" fill="#ffffff"/><path d="M24,48a3,3,0,1,0,3-3A3,3,0,0,0,24,48Zm4,0a1,1,0,1,1-1-1A1,1,0,0,1,28,48Z" data-original="#000000" class="active-path" data-old_color="#ffffff" fill="#ffffff"/><path d="M14,48a3,3,0,1,0,3-3A3,3,0,0,0,14,48Zm4,0a1,1,0,1,1-1-1A1,1,0,0,1,18,48Z" data-original="#000000" class="active-path" data-old_color="#ffffff" fill="#ffffff"/><path d="M35,53a3,3,0,1,0-3,3A3,3,0,0,0,35,53Zm-3,1a1,1,0,1,1,1-1A1,1,0,0,1,32,54Z" data-original="#000000" class="active-path" data-old_color="#ffffff" fill="#ffffff"/><path d="M45,53a3,3,0,1,0-3,3A3,3,0,0,0,45,53Zm-3,1a1,1,0,1,1,1-1A1,1,0,0,1,42,54Z" data-original="#000000" class="active-path" data-old_color="#ffffff" fill="#ffffff"/><path d="M52,50a3,3,0,1,0,3,3A3,3,0,0,0,52,50Zm0,4a1,1,0,1,1,1-1A1,1,0,0,1,52,54Z" data-original="#000000" class="active-path" data-old_color="#ffffff" fill="#ffffff"/><path d="M25,53a3,3,0,1,0-3,3A3,3,0,0,0,25,53Zm-3,1a1,1,0,1,1,1-1A1,1,0,0,1,22,54Z" data-original="#000000" class="active-path" data-old_color="#ffffff" fill="#ffffff"/><path d="M15,53a3,3,0,1,0-3,3A3,3,0,0,0,15,53Zm-3,1a1,1,0,1,1,1-1A1,1,0,0,1,12,54Z" data-original="#000000" class="active-path" data-old_color="#ffffff" fill="#ffffff"/><path d="M37,56a3,3,0,1,0,3,3A3,3,0,0,0,37,56Zm0,4a1,1,0,1,1,1-1A1,1,0,0,1,37,60Z" data-original="#000000" class="active-path" data-old_color="#ffffff" fill="#ffffff"/><path d="M47,56a3,3,0,1,0,3,3A3,3,0,0,0,47,56Zm0,4a1,1,0,1,1,1-1A1,1,0,0,1,47,60Z" data-original="#000000" class="active-path" data-old_color="#ffffff" fill="#ffffff"/><path d="M27,56a3,3,0,1,0,3,3A3,3,0,0,0,27,56Zm0,4a1,1,0,1,1,1-1A1,1,0,0,1,27,60Z" data-original="#000000" class="active-path" data-old_color="#ffffff" fill="#ffffff"/><path d="M17,56a3,3,0,1,0,3,3A3,3,0,0,0,17,56Zm0,4a1,1,0,1,1,1-1A1,1,0,0,1,17,60Z" data-original="#000000" class="active-path" data-old_color="#ffffff" fill="#ffffff"/></g></g> </svg>
